<svg width="134" height="25" viewBox="0 0 134 25" fill="none" xmlns="http://www.w3.org/2000/svg">
<path d="M59.912 25L56.552 18.76H56.048V25H51.344V8.08H58.76C60.12 8.08 61.272 8.32 62.216 8.8C63.16 9.264 63.872 9.912 64.352 10.744C64.832 11.56 65.072 12.48 65.072 13.504C65.072 14.656 64.752 15.672 64.112 16.552C63.488 17.416 62.568 18.032 61.352 18.4L65.168 25H59.912ZM56.048 15.544H58.376C59.016 15.544 59.496 15.392 59.816 15.088C60.136 14.784 60.296 14.344 60.296 13.768C60.296 13.224 60.128 12.8 59.792 12.496C59.472 12.176 59 12.016 58.376 12.016H56.048V15.544ZM71.9152 11.848V14.608H77.3152V18.184H71.9152V21.232H78.0352V25H67.2112V8.08H78.0352V11.848H71.9152ZM96.8236 8.08L90.9916 25H84.9676L79.1116 8.08H84.1516L87.9916 20.296L91.8076 8.08H96.8236ZM102.993 8.08V25H98.2893V8.08H102.993ZM110.376 11.848V14.608H115.776V18.184H110.376V21.232H116.496V25H105.672V8.08H116.496V11.848H110.376ZM127.389 25L124.029 18.76H123.525V25H118.821V8.08H126.237C127.597 8.08 128.749 8.32 129.693 8.8C130.637 9.264 131.349 9.912 131.829 10.744C132.309 11.56 132.549 12.48 132.549 13.504C132.549 14.656 132.229 15.672 131.589 16.552C130.965 17.416 130.045 18.032 128.829 18.4L132.645 25H127.389ZM123.525 15.544H125.853C126.493 15.544 126.973 15.392 127.293 15.088C127.613 14.784 127.773 14.344 127.773 13.768C127.773 13.224 127.605 12.8 127.269 12.496C126.949 12.176 126.477 12.016 125.853 12.016H123.525V15.544Z" fill="#0E912C"/>
<path fill-rule="evenodd" clip-rule="evenodd" d="M18.4711 5.84735C18.2999 5.31084 17.8375 4.8877 17.2761 4.8877C15.3464 4.8877 14.1403 6.98472 15.1052 8.66235L21.5347 19.8411C22.4997 21.5188 24.9119 21.5188 25.8768 19.8411L32.3063 8.66235C33.2711 6.98472 32.0651 4.8877 30.1352 4.8877C29.574 4.8877 29.1116 5.31084 28.9404 5.84735C28.2307 8.06981 26.1554 9.6786 23.7057 9.6786C21.2561 9.6786 19.1808 8.06981 18.4711 5.84735Z" fill="#0E912C"/>
<path d="M23.8657 8.3236C26.1554 8.3236 28.0116 6.4603 28.0116 4.1618C28.0116 1.8633 26.1554 0 23.8657 0C21.5759 0 19.7197 1.8633 19.7197 4.1618C19.7197 6.4603 21.5759 8.3236 23.8657 8.3236Z" fill="#0E912C"/>
<path fill-rule="evenodd" clip-rule="evenodd" d="M4.50035 20.666C3.95183 20.5468 3.35558 20.7373 3.07495 21.2251C2.11006 22.9027 3.31617 24.9997 5.24597 24.9997H18.105C20.0349 24.9997 21.2409 22.9027 20.2759 21.2251L13.8465 10.0463C12.8816 8.36868 10.4694 8.36868 9.50447 10.0463C9.22385 10.5342 9.35772 11.1478 9.73493 11.5649C11.2975 13.2931 11.6478 15.9016 10.423 18.0311C9.19815 20.1606 6.77253 21.1604 4.50035 20.666Z" fill="#0E912C"/>
<path d="M9.254 17.3535C10.3989 15.3629 9.71945 12.8176 7.73647 11.6683C5.75349 10.5191 3.21786 11.2011 2.07298 13.1917C0.928106 15.1822 1.60753 17.7275 3.59051 18.8768C5.57349 20.026 8.10912 19.344 9.254 17.3535Z" fill="#0E912C"/>
<path fill-rule="evenodd" clip-rule="evenodd" d="M42.9112 20.666C43.4596 20.5468 44.0561 20.7373 44.3366 21.2251C45.3014 22.9027 44.0954 24.9997 42.1655 24.9997H29.3065C27.3768 24.9997 26.1706 22.9027 27.1355 21.2251L33.565 10.0463C34.53 8.36868 36.9422 8.36868 37.9071 10.0463C38.1877 10.5342 38.0539 11.1478 37.6767 11.5649C36.1141 13.2931 35.7637 15.9016 36.9886 18.0311C38.2133 20.1606 40.639 21.1604 42.9112 20.666Z" fill="#0E912C"/>
<path d="M38.1571 17.3535C37.0123 15.3629 37.6917 12.8176 39.6747 11.6684C41.6576 10.5191 44.1933 11.2011 45.3382 13.1917C46.483 15.1822 45.8036 17.7275 43.8206 18.8768C41.8376 20.026 39.302 19.344 38.1571 17.3535Z" fill="#0E912C"/>
</svg>
