<svg width="48" height="25" viewBox="0 0 48 25" fill="none" xmlns="http://www.w3.org/2000/svg">
<path fill-rule="evenodd" clip-rule="evenodd" d="M18.4711 5.84735C18.2999 5.31084 17.8375 4.8877 17.2761 4.8877C15.3464 4.8877 14.1403 6.98471 15.1052 8.66234L21.5347 19.8411C22.4997 21.5188 24.9119 21.5188 25.8768 19.8411L32.3063 8.66234C33.2711 6.98471 32.0651 4.8877 30.1352 4.8877C29.574 4.8877 29.1116 5.31084 28.9404 5.84735C28.2307 8.06981 26.1554 9.6786 23.7057 9.6786C21.2561 9.6786 19.1808 8.06981 18.4711 5.84735Z" fill="#10B981"/>
<path d="M23.8647 8.3236C26.1544 8.3236 28.0107 6.4603 28.0107 4.1618C28.0107 1.8633 26.1544 0 23.8647 0C21.5749 0 19.7188 1.8633 19.7188 4.1618C19.7188 6.4603 21.5749 8.3236 23.8647 8.3236Z" fill="#10B981"/>
<path fill-rule="evenodd" clip-rule="evenodd" d="M4.50132 20.666C3.9528 20.5468 3.35655 20.7373 3.07592 21.2251C2.11103 22.9027 3.31714 24.9997 5.24694 24.9997H18.106C20.0359 24.9997 21.2419 22.9027 20.2769 21.2251L13.8475 10.0463C12.8826 8.36868 10.4704 8.36868 9.50544 10.0463C9.22482 10.5342 9.35869 11.1478 9.7359 11.5649C11.2985 13.2931 11.6488 15.9016 10.424 18.0311C9.19912 20.1606 6.7735 21.1604 4.50132 20.666Z" fill="#10B981"/>
<path d="M9.25474 17.3538C10.3996 15.3632 9.72019 12.8179 7.73721 11.6686C5.75423 10.5194 3.2186 11.2014 2.07372 13.192C0.928848 15.1825 1.60827 17.7278 3.59125 18.8771C5.57423 20.0263 8.10986 19.3443 9.25474 17.3538Z" fill="#10B981"/>
<path fill-rule="evenodd" clip-rule="evenodd" d="M42.9122 20.666C43.4606 20.5468 44.0571 20.7373 44.3376 21.2251C45.3024 22.9027 44.0964 24.9997 42.1665 24.9997H29.3075C27.3778 24.9997 26.1716 22.9027 27.1365 21.2251L33.566 10.0463C34.531 8.36868 36.9432 8.36868 37.9081 10.0463C38.1887 10.5342 38.0549 11.1478 37.6777 11.5649C36.1151 13.2931 35.7647 15.9016 36.9896 18.0311C38.2143 20.1606 40.64 21.1604 42.9122 20.666Z" fill="#10B981"/>
<path d="M38.1577 17.3538C37.0129 15.3632 37.6923 12.8179 39.6753 11.6687C41.6582 10.5194 44.1939 11.2014 45.3388 13.192C46.4836 15.1825 45.8042 17.7278 43.8212 18.8771C41.8382 20.0263 39.3026 19.3443 38.1577 17.3538Z" fill="#10B981"/>
</svg>
